PathFileType	4	(X/Y/Z)	/Users/niels/Desktop/University/Third Semester/Perception and Action/Exam/Gymnastics Motion Tracking/Code for Gym Tracking/Scripts/Analyzed Data/kraft_bad_id5_1_nmspeed_Sports2D/kraft_bad_id5_1_nmspeed_Sports2D_px_person00.trc
DataRate	CameraRate	NumFrames	NumMarkers	Units	OrigDataRate	OrigDataStartFrame	OrigNumFrames
49.390243902439025	49.390243902439025	7	22	m	49.390243902439025	68	82
Frame#	Time	Hip			RHip			RKnee			RAnkle			RBigToe			RSmallToe			RHeel			LHip			LKnee			LAnkle			LBigToe			LSmallToe			LHeel			Neck			Head			Nose			RShoulder			RElbow			RWrist			LShoulder			LElbow			LWrist		
		X1	Y1	Z1	X2	Y2	Z2	X3	Y3	Z3	X4	Y4	Z4	X5	Y5	Z5	X6	Y6	Z6	X7	Y7	Z7	X8	Y8	Z8	X9	Y9	Z9	X10	Y10	Z10	X11	Y11	Z11	X12	Y12	Z12	X13	Y13	Z13	X14	Y14	Z14	X15	Y15	Z15	X16	Y16	Z16	X17	Y17	Z17	X18	Y18	Z18	X19	Y19	Z19	X20	Y20	Z20	X21	Y21	Z21	X22	Y22	Z22
68	1.3767901234567899	1.4759679578786924	-0.6401728600711315	0.0	1.4685147508410314	-0.6526405657884223	0.0	1.6105537780291046	-0.7645246010199921	0.0	1.6087594674019068	-0.9086464092573079	0.0	1.677630281937834	-0.8984508097785835	0.0	1.652971567406125	-0.9058052872540063	0.0	1.5952360521208873	-0.9237613930640985	0.0	1.488374377587074	-0.6291816826384643	0.0	1.6301539635007387	-0.6978598679378142	0.0	1.670594955002279	-0.8390643293401393	0.0	1.7506309806130782	-0.8446898900531266	0.0	1.7236458296638044	-0.8432898435288785	0.0	1.6627414731432624	-0.8605511210500115	0.0	1.3020129298557217	-0.5524902530453262	0.0	1.238484460268319	-0.4882606553403838	0.0	1.298443901035709	-0.5029026991586315	0.0	1.3004444153609354	-0.574031761680335	0.0	1.3461616364160776	-0.6256353181390784	0.0	1.359651492940179	-0.6695417662675862	0.0	1.3114653880954412	-0.5423563472669094	0.0	1.3086762039309499	-0.5439444683134022	0.0	1.2780350888932714	-0.5432191428521416	0.0
69	1.3970370370370369	1.4942265469585052	-0.6561127203408526	0.0	1.4859138687508706	-0.6667918352494069	0.0	1.6204129781475214	-0.7874167943612352	0.0	1.6128418364731352	-0.9302364336278611	0.0	1.6837991073966923	-0.9203213811506084	0.0	1.6565852168332786	-0.922791818619549	0.0	1.5978908718087	-0.9431621971448979	0.0	1.506816266321316	-0.6470082336273909	0.0	1.6415576459701073	-0.7328325832505049	0.0	1.675660651846085	-0.8734018975107771	0.0	1.7596030825575404	-0.878299438899001	0.0	1.7280597997047473	-0.8781434736634899	0.0	1.666309117492638	-0.893536840307812	0.0	1.3316697467638823	-0.550193274347584	0.0	1.2780260044965117	-0.4774167467642937	0.0	1.3354004063468923	-0.49866382748767935	0.0	1.329127376591989	-0.5726275119461202	0.0	1.374658666317563	-0.6313151564368104	0.0	1.3927546283975512	-0.6797009478387946	0.0	1.341171800859324	-0.5444343594298623	0.0	1.3439564299935702	-0.5583693189753932	0.0	1.3247124544483209	-0.5583433381590068	0.0
70	1.4172839506172838	1.5112753362948743	-0.6699201972598019	0.0	1.5026017216579264	-0.6788326520930327	0.0	1.6301478782726766	-0.8067834229483071	0.0	1.6165794627708538	-0.9483460206336061	0.0	1.6895127726121382	-0.939533588950995	0.0	1.6599325947965142	-0.9369990927712406	0.0	1.6004342575799586	-0.9589670155468026	0.0	1.5235938792313608	-0.6626490482964456	0.0	1.6508995627712126	-0.7638092076103185	0.0	1.679065180663664	-0.90286380963502	0.0	1.7660532540845275	-0.9070695129706147	0.0	1.7310214741601622	-0.9080500260424197	0.0	1.6683011967401948	-0.9213147213029519	0.0	1.3611428644745138	-0.5484868750438167	0.0	1.3178204203228252	-0.4688332617481595	0.0	1.3721417659912114	-0.4961160092994742	0.0	1.3579474439149788	-0.5717237654696573	0.0	1.4019300231358591	-0.6373722221377113	0.0	1.4238184813969892	-0.6909374845753505	0.0	1.370047491305392	-0.5474024849423079	0.0	1.378332529525781	-0.5756194177638447	0.0	1.3711271196068313	-0.577947122161451	0.0
71	1.4375308641975306	1.5271611193226307	-0.6811949017079496	0.0	1.5185734162189968	-0.6884210733499624	0.0	1.6398593839919238	-0.8223290357590002	0.0	1.6200902029416635	-0.9625394091437884	0.0	1.6944491875427063	-0.9557121287861756	0.0	1.6629677794283773	-0.9485874269954016	0.0	1.6030517040138048	-0.9709398894156492	0.0	1.5388018708774143	-0.6755928249553607	0.0	1.6587598610054477	-0.7900414946327159	0.0	1.6811665333366177	-0.9269904234729958	0.0	1.7694681182815903	-0.9309260684218964	0.0	1.7328161843344818	-0.9327327736264159	0.0	1.6690887987474885	-0.9433389039616262	0.0	1.389834269395242	-0.5469704007059112	0.0	1.3567276017895695	-0.4620914032732187	0.0	1.4077137867676712	-0.494746667056585	0.0	1.3862956140890457	-0.5709754682107858	0.0	1.4278322210846914	-0.6431836867012224	0.0	1.4525606447007418	-0.7023516678049163	0.0	1.3975031822508703	-0.5505626866832242	0.0	1.4109213586639526	-0.5934239735978083	0.0	1.415259190478644	-0.5996480279053201	0.0
72	1.4577777777777776	1.541978072311336	-0.6897274300844501	0.0	1.5338638293954845	-0.6953750466274016	0.0	1.6495702781398374	-0.8339355892790541	0.0	1.6233916353699203	-0.9725276923467496	0.0	1.6980708342948496	-0.9684539737311231	0.0	1.6656464004273945	-0.9577473214610943	0.0	1.6057645462642365	-0.9789982688381588	0.0	1.5526092621153536	-0.685546458105505	0.0	1.665652866273728	-0.8110499376949319	0.0	1.682394342094218	-0.9456502486436242	0.0	1.7696641795324364	-0.9497675141099907	0.0	1.733487461012807	-0.9521180429105603	0.0	1.6692052593816007	-0.9594366292482637	0.0	1.4172748944786644	-0.5452169342737109	0.0	1.3937964732044794	-0.4566082517870665	0.0	1.4413440075473674	-0.49389839424542015	0.0	1.4136506471707728	-0.5699756520988478	0.0	1.4522757919061795	-0.6481440101518435	0.0	1.4788194271409432	-0.7130170723425278	0.0	1.423128879367516	-0.5532536039005752	0.0	1.440994811578532	-0.609786819367245	0.0	1.4555403149477004	-0.6217364377036602	0.0
73	1.4780246913580246	1.5557524750388334	-0.6954286684924591	0.0	1.548449685868574	-0.6996072521008644	0.0	1.6592053529307322	-0.8415931990957677	0.0	1.6264231910104692	-0.9782373314064429	0.0	1.6998912037883336	-0.9774425245134682	0.0	1.6679215359116009	-0.9646178442365311	0.0	1.6084547443461952	-0.983232198243512	0.0	1.5651465853735147	-0.692373716404488	0.0	1.6719298495293216	-0.8265649717670669	0.0	1.6831821691532103	-0.9589647728657535	0.0	1.7670371362594608	-0.9635516008753114	0.0	1.7329669571162798	-0.9664173161323755	0.0	1.6692941681077225	-0.9698657252874161	0.0	1.4430210669150962	-0.5428143790292453	0.0	1.4282494140707032	-0.4517224999948852	0.0	1.4724020158021225	-0.4928644809674631	0.0	1.4395137188546467	-0.5682761403716562	0.0	1.4751198635256493	-0.6517016740778295	0.0	1.5024717325143055	-0.7220609294842677	0.0	1.4465650365665879	-0.5548927637023399	0.0	1.4679261382913804	-0.6233730555383804	0.0	1.4909447451469435	-0.6432952368505523	0.0
74	1.4982716049382714	1.5684224253248145	-0.6982764362396151	0.0	1.562232504461188	-0.7010933158834188	0.0	1.6686321279763705	-0.8454028647052025	0.0	1.6290985027553089	-0.9798684740698815	0.0	1.6998153112553829	-0.9826191096660581	0.0	1.6697356590162116	-0.9692207316939887	0.0	1.6109548973962728	-0.9839267954735577	0.0	1.5764714797167345	-0.696051434532123	0.0	1.6777412500261286	-0.8365854748204932	0.0	1.6838700257856114	-0.9672798326993949	0.0	1.762472153215159	-0.9727493171131371	0.0	1.7314034526848658	-0.9762798620563312	0.0	1.6699063554179212	-0.97532701258384	0.0	1.4666493283714224	-0.5394246214611225	0.0	1.4595092152925457	-0.4468235038936559	0.0	1.500412118941679	-0.4910595532143012	0.0	1.463420199523396	-0.5654595961845807	0.0	1.496156506343864	-0.6533959572332135	0.0	1.5234244368520278	-0.7287444686816772	0.0	1.4674999293321984	-0.5550103135660225	0.0	1.4911550730471541	-0.6334222465524397	0.0	1.5207154142010708	-0.6632690975623201	0.0
